<?xml version="1.0" encoding="UTF-8"?>
<svg id="Layer_1" xmlns="http://www.w3.org/2000/svg" version="1.1" viewBox="0 0 1240.52 650.28">
  <!-- Generator: Adobe Illustrator 30.5.1, SVG Export Plug-In . SVG Version: 2.1.4 Build 3)  -->
  <defs>
    <style>
      .st0, .st1 {
        fill: #004e38;
      }

      .st1 {
        fill-rule: evenodd;
      }
    </style>
  </defs>
  <path class="st0" d="M1221.04,503.37v-5.78c-12.64-1.23-14.1-2.12-14.1-16.38v-63.08c0-14.14,1.46-15.14,14.1-16.26v-5.78h-50.79v5.78c12.64,1.12,14.33,2.12,14.33,16.26v63.08c0,14.26-1.7,15.14-14.33,16.38v5.78h50.79ZM1151.65,503.37v-5.78c-6.55-1-11.52-3.93-18.5-12.52-12.1-14.41-24.85-30.79-35.91-47.05,7.9-7.94,15.14-15.65,25.16-24.7,9.17-8.17,16.61-10.44,27.01-11.45v-5.78h-44.62v5.78l3.28.54c8.02.92,8.36,3.43,4.32,8.52-5.09,6.67-11.41,13.95-23.51,26.28-5.63,5.43-9.94,8.29-13.53,9.29v-28.09c0-14.41,1.35-15.41,13.53-16.53v-5.78h-49.83v5.78c12.87,1.12,14.57,2.12,14.57,16.53v62.73c0,14.34-1.69,15.22-13.99,16.45v5.78h50.37v-5.78c-13.18-1.23-14.64-2.12-14.64-16.45v-29.44c2.47-.35,4.62.58,8.44,5.97,11.98,16.68,26.09,35.1,33.99,45.7h33.87ZM1013.12,421.79c-1.27-10.52-2.51-17.88-3.04-23.85-2.74-.93-12.56-4.39-23.66-4.39-23.39,0-38.38,14.03-38.38,32.41,0,15.84,11.64,24.74,29.17,33.33,12.56,6.32,20.08,12.41,20.08,22.12,0,10.71-6.51,17.61-16.84,17.61-15.95,0-26.32-19.07-29.48-29.59l-5.86,1.81c1.16,10.06,3.39,24.51,4.97,28.44,2.04,1.04,5.39,2.27,10.13,3.74,4.97,1.58,10.94,2.47,16.99,2.47,24.39,0,40.89-14.87,40.89-33.83,0-16.38-11.99-25.62-29.79-33.99-15.03-7.24-21.08-12.41-21.08-21.46s6.7-16.34,16.61-16.34c13.45,0,20.23,12.41,23.51,22.77l5.78-1.23ZM859.33,400.68c20.38,0,35.18,19.42,35.18,52.37,0,30.48-14.22,45.7-30.87,45.7-22.5,0-36.42-23.7-36.42-51.91s14.57-46.16,31.98-46.16h.12ZM862.53,393.59c-39.27,0-60.96,27.4-60.96,56.18,0,31.71,24.39,56.14,58.8,56.14s59.81-21.7,59.81-57.49c0-32.49-26.2-54.84-57.53-54.84h-.11ZM781.92,396.09h-41.12v5.78c12.41.66,15.92,3.62,16.72,11.06.35,4.74,1.35,12.33,1.35,27.01v28.94h-.46l-66.32-72.79h-31.29v5.78c7.01.66,10.83,1.81,13.99,5.74,3.28,3.97,3.62,6.9,3.62,17.65v34.49c0,14.57-1,21.47-1.69,27.13-.69,7.21-4.74,9.83-13.99,10.71v5.78h41.35v-5.78c-12.56-.66-15.49-3.82-16.3-11.41-.54-4.97-1.35-11.87-1.35-26.44l.12-37.42h.35l72.1,82.89h7.9v-65.32c0-14.68,1-22.23,1.69-27.32.81-8.02,4.39-10.17,13.33-10.71v-5.78ZM580.81,400.68c20.38,0,35.18,19.42,35.18,52.37,0,30.48-14.22,45.7-30.87,45.7-22.5,0-36.42-23.7-36.42-51.91s14.57-46.16,31.98-46.16h.12ZM584.01,393.59c-39.27,0-60.96,27.4-60.96,56.18,0,31.71,24.39,56.14,58.8,56.14s59.81-21.7,59.81-57.49c0-32.49-26.2-54.84-57.53-54.84h-.11ZM510.3,503.37v-5.78c-6.55-1-11.52-3.93-18.5-12.52-12.1-14.41-24.85-30.79-35.91-47.05,7.9-7.94,15.14-15.65,25.16-24.7,9.17-8.17,16.61-10.44,27.01-11.45v-5.78h-44.62v5.78l3.28.54c8.02.92,8.36,3.43,4.32,8.52-5.09,6.67-11.41,13.95-23.51,26.28-5.63,5.43-9.94,8.29-13.53,9.29v-28.09c0-14.41,1.35-15.41,13.53-16.53v-5.78h-49.83v5.78c12.87,1.12,14.57,2.12,14.57,16.53v62.73c0,14.34-1.69,15.22-13.99,16.45v5.78h50.36v-5.78c-13.18-1.23-14.64-2.12-14.64-16.45v-29.44c2.47-.35,4.62.58,8.44,5.97,11.98,16.68,26.09,35.1,33.99,45.7h33.87ZM311.16,450.89v-40.42c0-3.27.31-5.09,1.46-6.09,1.23-1.04,3.51-1.81,7.9-1.81,9.6,0,20,6.44,20,24.12,0,8.36-2.35,14.8-8.13,19.81-3.74,3.28-9.71,4.39-17.07,4.39h-4.16ZM379.9,499.21c-3.97-1.35-6.55-3.04-10.06-6.74-3.28-3.47-7.01-8.9-12.99-18-5.05-7.55-11.25-18.46-13.72-23.24,11.14-4.28,20.96-12.22,20.96-26.94,0-10.21-4.62-17.57-11.18-22.08-6.86-4.55-15.45-6.13-30.71-6.13h-46.78v5.78c12.29,1,13.99,2.93,13.99,16.18v63.04c0,13.68-2.12,15.14-14.64,16.49v5.78h50.83v-5.78c-12.75-1.35-14.45-2.81-14.45-16.38v-23.85h3.28c5.39,0,8.55,2,11.37,6.9,4.97,8.82,9.4,17.61,13.8,24.43,6.78,10.29,13.33,15.03,34.76,16.07,1.93,0,3.74.12,4.51.12l1.04-5.66ZM203.8,458.98h-26.63c4.28-11.72,8.79-23.66,13.53-35.53h.46l12.64,35.53ZM253.97,503.37v-5.78c-10.83-1.35-13.1-3.62-18.73-18.27-11.06-28.24-21.58-56.99-32.41-85.78l-8.67,2.16-34.64,84.2c-5.63,14.3-7.44,16.34-18.92,17.69l-.23,5.78h37.8v-5.78c-12.29-1.58-12.64-3.97-10.13-11.56,1.89-6.71,4.28-12.83,6.2-18.27h32.72c2.85,7.13,5.43,14.3,7.13,19.15,2.47,7.05,1.81,8.98-8.25,10.67v5.78h48.13ZM126.54,503.37v-5.78c-6.55-1-11.52-3.93-18.5-12.52-12.1-14.41-24.85-30.79-35.91-47.05,7.9-7.94,15.14-15.65,25.16-24.7,9.17-8.17,16.61-10.44,27.01-11.45v-5.78h-44.62v5.78l3.28.54c8.02.92,8.36,3.43,4.32,8.52-5.09,6.67-11.41,13.95-23.51,26.28-5.63,5.43-9.94,8.29-13.53,9.29v-28.09c0-14.41,1.35-15.41,13.53-16.53v-5.78H13.95v5.78c12.87,1.12,14.57,2.12,14.57,16.53v62.73c0,14.34-1.69,15.22-13.99,16.45v5.78h50.37v-5.78c-13.18-1.23-14.64-2.12-14.64-16.45v-29.44c2.47-.35,4.62.58,8.44,5.97,11.98,16.68,26.09,35.1,33.99,45.7h33.87Z"/>
  <path class="st0" d="M899.06,597.69c0-9.19.59-10.08,5.04-10.68l2.77-.4c.89-.59.89-2.87,0-3.46-5.24.2-10.18.3-14.92.3s-9.89-.1-14.83-.3c-1.09.59-1.09,2.87,0,3.46l2.77.4c4.45.59,5.04,1.48,5.04,10.68v36.77c0,9.19-.59,10.08-5.04,10.68l-2.77.4c-.79.59-.79,2.87,0,3.46,5.24-.2,10.38-.3,14.83-.3,4.74,0,9.69.1,14.92.3.79-.59.79-2.77,0-3.46l-2.77-.4c-4.45-.59-5.04-1.48-5.04-10.68v-10.38c0-5.34.1-6.72,2.37-6.72s3.86,2.37,7.41,7.81l5.24,8.01c.99,1.48,5.14,7.91,5.73,8.8.59.89.79,1.58.79,1.98s-.59.69-1.68.99l-2.47.59c-1.09.59-1.09,3.06.2,3.46,5.54-.2,10.48-.3,15.52-.3,4.55,0,9.29.1,14.23.3.89-.49.89-2.57.3-3.46l-3.16-.49c-2.77-.4-4.65-1.09-7.32-4.65-6.72-8.9-12.55-18.39-17.5-25.8-2.97-4.45-3.56-5.63-3.56-6.13,0-.4.3-1.19,1.28-2.27l4.55-5.14c6.43-7.31,10.68-11.07,14.63-12.65,2.08-.89,5.04-1.38,8.5-1.78.79-.79.69-3.06-.49-3.46-3.95.2-8.3.3-11.96.3s-7.22-.1-12.26-.3c-1.29.4-1.48,2.77-.4,3.46l3.46.59c1.29.2,1.68.89,1.68,1.28s-.4,1.29-1.28,2.57c-3.16,4.65-8.9,10.78-14.14,16.61-1.68,1.88-5.83,5.73-7.91,5.73-1.19,0-1.78-.39-1.78-3.66v-12.06ZM834.04,608.27c0-8.01.4-15.42,1.48-18.09.89-2.08,2.77-2.87,5.34-3.26l1.78-.3c.79-.79.59-2.87,0-3.46-3.85.2-7.41.3-11.07.3-4.05,0-7.91-.1-13.25-.3-.59.59-.79,2.67,0,3.46l2.67.4c2.67.4,4.84,1.09,5.73,3.16,1.09,2.67,1.48,10.08,1.48,18.09v13.64c0,1.78,0,3.46-.4,4.45-2.27-2.27-5.14-5.73-9.49-10.87l-8.3-9.79c-8.9-10.58-15.32-18.09-16.31-22.54-2.08.2-4.94.3-8.3.3-4.05,0-9-.1-13.64-.3-.99.3-1.09,2.67-.4,3.46l2.77.4c3.46.49,4.84,1.68,5.63,3.36.59,1.38.69,2.97.69,8.4v25.11c0,8.01-.3,15.42-1.38,18.09-.79,2.08-2.77,2.77-5.44,3.26l-1.68.3c-.79.79-.59,2.87,0,3.46,3.76-.2,7.41-.3,11.07-.3,3.95,0,7.91.1,13.24.3.59-.59.79-2.67,0-3.46l-2.77-.4c-2.57-.4-4.84-1.09-5.73-3.16-1.09-2.67-1.48-10.08-1.48-18.09v-19.18c0-3.66,0-5.34.49-6.33,1.78,1.48,5.04,5.63,10.77,12.65l22.84,28.27c4.65,5.73,7.91,10.77,8.01,10.77,2.37,0,5.14-1.09,5.83-2.27-.2-3.26-.2-9.49-.2-15.92v-23.62ZM718.9,627.51c0-5.62.69-8.09,3.26-12.74l6.23-11.27c4.75-8.6,7.12-12.16,8.6-14.02,1.09-1.38,3.36-2.08,5.14-2.37l2.57-.49c.79-.69.79-3.06-.4-3.46-2.87.2-5.93.3-9.69.3-3.56,0-7.12-.1-11.07-.3-.99.49-.89,2.97-.1,3.46l1.88.4c2.37.4,3.95.99,3.95,1.58,0,1.19-1.19,4.13-4.74,11.15-2.57,5.04-5.63,11.47-8.5,16.31-1.19-2.47-3.46-7.02-4.94-10.28l-4.64-10.58c-2.08-4.63-2.57-6.11-2.57-6.9,0-.1.59-.49,2.37-.89l3.36-.79c.89-.79.69-3.06-.2-3.46-3.36.2-8.4.3-14.43.3s-9.49-.1-13.94-.3c-1.19.3-1.29,2.67-.4,3.46l3.36.59c3.46.59,4.35,2.17,6.33,6.21l11.76,24.32c2.57,5.24,2.67,6.82,2.67,11.75v4.94c0,9.19-.59,9.89-5.04,10.58l-3.36.49c-.79.59-.79,2.88,0,3.48,5.83-.2,10.78-.26,15.52-.26s9.59.07,16.01.26c.69-.59.69-2.88,0-3.48l-3.95-.49c-4.45-.59-5.04-1.38-5.04-10.58v-6.92ZM627.38,588c2.47,0,3.36.2,3.36.59,0,.59-.3,1.09-.99,2.37-1.78,3.26-6.52,10.68-8.3,13.44l-19.47,29.65c-2.97,4.45-7.61,11.57-9.09,13.25-.2.59.1,1.38.79,1.68,1.58-.2,4.75-.3,9.98-.3h24.91c6.92,0,12.36.1,20.66.3,1.58-2.47,3.76-11.17,4.35-16.61-.69-1.09-2.67-1.48-3.85-.69-5.44,11.17-8.8,12.46-18.49,12.46h-9.19c-8.01,0-9.09-.49-9.09-1.29,0-1.19,2.47-4.84,12.45-20.36l10.77-16.71c7.81-12.06,13.25-19.47,14.83-21.15.1-.59-.1-1.19-.59-1.48-1.68.2-4.75.3-11.57.3h-28.27c-7.31,0-7.81-.4-8.4-2.37-.79-.3-2.17-.3-2.57.1-.99,5.24-1.98,10.58-3.86,17.5.59,1.09,2.77,1.48,4.05.69,3.36-8.3,5.44-11.37,16.9-11.37h10.68ZM558.8,630.21c0-10.87-7.81-16.61-13.94-19.87l-6.52-3.46c-4.94-2.57-8.99-6.72-8.99-11.27,0-4.94,3.56-9.19,10.08-9.19,7.12,0,11.37,7.22,13.05,12.26.89.99,3.36.89,3.85-.3,0-6.62-.99-11.96-1.78-14.14-1.19-.2-2.08-.4-3.36-.79-3.95-1.19-8.01-1.58-11.27-1.58-14.33,0-23.03,7.71-22.93,18.88,0,9.79,7.81,15.72,14.93,19.28,5.93,2.97,13.44,7.71,13.44,15.72,0,4.94-3.36,9.98-10.67,9.98-8.4,0-15.03-9.09-17-15.52-.79-1.09-3.06-.99-3.76.3,0,6.72,1.28,13.84,3.16,16.01,2.08,1.19,7.71,3.76,16.81,3.76,14.93,0,24.91-7.91,24.91-20.07ZM460.95,627.51c0-5.62.69-8.09,3.26-12.74l6.23-11.27c4.74-8.6,7.12-12.16,8.6-14.02,1.09-1.38,3.36-2.08,5.14-2.37l2.57-.49c.79-.69.79-3.06-.4-3.46-2.87.2-5.93.3-9.69.3-3.56,0-7.12-.1-11.07-.3-.99.49-.89,2.97-.1,3.46l1.88.4c2.37.4,3.95.99,3.95,1.58,0,1.19-1.19,4.13-4.74,11.15-2.57,5.04-5.63,11.47-8.5,16.31-1.19-2.47-3.46-7.02-4.94-10.28l-4.64-10.58c-2.08-4.63-2.57-6.11-2.57-6.9,0-.1.59-.49,2.37-.89l3.36-.79c.89-.79.69-3.06-.2-3.46-3.36.2-8.4.3-14.43.3s-9.49-.1-13.94-.3c-1.19.3-1.29,2.67-.4,3.46l3.36.59c3.46.59,4.35,2.17,6.33,6.21l11.76,24.32c2.57,5.24,2.67,6.82,2.67,11.75v4.94c0,9.19-.59,9.89-5.04,10.58l-3.36.49c-.79.59-.79,2.88,0,3.48,5.83-.2,10.77-.26,15.52-.26s9.59.07,16.01.26c.69-.59.69-2.88,0-3.48l-3.95-.49c-4.45-.59-5.04-1.38-5.04-10.58v-6.92ZM399.59,586.65c.69-.79.59-2.98-.3-3.48-2.77.2-5.63.26-9.09.26-2.97,0-7.02-.07-10.18-.26-.89.49-1.09,2.59-.3,3.48l2.17.59c1.29.4,2.87.79,2.87,1.78,0,1.09-1.88,6.33-2.57,8.01-4.75,12.04-10.18,24.6-14.93,36.05-.59-1.38-1.98-4.55-4.55-9.97l-4.65-9.98c-.69-1.58-.79-2.17-.79-2.47,0-.49,1.29-3.36,2.17-5.14,1.28-2.59,3.76-7.53,6.13-11.58,3.46-5.93,4.15-5.93,7.51-6.62l2.77-.59c.89-.66.69-3.05-.1-3.54-2.57.2-6.23.26-10.08.26-3.26,0-6.82-.07-9.69-.26-.89.49-.99,2.78-.3,3.48l3.56.69c1.58.4,1.98.69,1.98,1.38,0,.59-1.19,3.56-2.87,7.31l-.89,1.98c-.99,2.18-2.08,4.63-3.06,6.71-.89-1.78-2.17-4.43-3.06-6.51l-2.97-6.82c-.49-1.09-.89-2.17-.89-2.96,0-.69,1.48-1.09,2.67-1.38l1.68-.4c.69-.49.79-3.18-.4-3.48-2.57.2-6.33.26-11.37.26-4.35,0-8.2-.07-12.45-.26-1.09.4-1.29,2.69-.3,3.48l.99.1c3.76.39,4.45,1.09,6.72,6.03l9.49,20.84c.4.99,1.09,3.06,1.09,3.66s-.3,1.88-.99,3.46l-1.29,2.87c-1.58,3.54-3.85,8.19-5.04,10.16-1.19-2.37-2.67-5.14-5.44-11.25l-9.78-21.83c-3.06-6.92-5.14-11.56-5.14-12.26s.69-1.19,2.47-1.48l1.78-.3c.99-.59.59-3.08-.2-3.48-3.76.2-7.61.26-11.96.26-5.04,0-9.19-.07-12.85-.26-1.09.49-1.19,2.49-.4,3.48l2.47.49c3.26.69,3.85,1.19,6.52,7.02l16.11,34.86c3.36,7.41,7.31,16.31,8.89,20.46.89.49,1.58.79,2.67.79,1.48,0,2.87-.3,3.36-.79,1.58-3.26,2.67-6.13,4.15-9.29l4.55-9.59c1.28-2.77,2.47-5.12,3.36-6.8.89,1.48,2.18,4.43,3.56,7.59l4.15,9.39c1.19,2.77,2.67,6.33,3.76,8.7.69.49,1.58.79,2.67.79,1.28,0,2.67-.3,3.26-.79,4.84-12.85,15.62-37.45,20.46-49,2.67-6.23,4.35-9.39,5.44-10.97.69-.89,2.17-1.68,4.45-2.18l2.97-.69Z"/>
  <path class="st1" d="M669.82,152.03l42.27-21.09c71.54,51.13,169.99,112.4,236.4,170.19-46.52-9.92-62.89-35.42-117.61-30.81l-2.74-10.48c-12.11-24.38-36.04-30.24-64.89-48.8-52.92-34.06-35.89-27.98-90.6-1.38-30.41-17.76-45.59-36.11-71.2-50.25-21.76,12.61-21.35,10.06-30.02,31.73l116.12,92.24-157.64-69.03-21.84,31.21-64.59-37.98-40.95,28.01,116.92,63.52c-43.41-6.33-97.67-38.85-133.67-43.8-36.89-5.08-99.89,37.77-141.49,47.37,30.83-28.63,78.17-53.33,115.78-76.07,66.72-40.33,53.59-58.23,130.63-31.56l71.02-67.15c25.42-6.96,50.85-7.82,76.27.64,15.38,10.57,23.76,13.29,31.84,23.5"/>
  <path class="st1" d="M1010.55,603.85c4.08,8.77,2.89,6.71,23.69,6.53,27.24-.24,195.47-2.96,206.28-6.15-71.12-3.94-145.31-6.74-216.42-6.62-9.91.02-9.88-1.26-13.55,6.24"/>
  <path class="st1" d="M0,609.78c21.46,2.87,172.48,5.59,206.62,6.05,11.66.16,21.32,3.32,25-6.45-4.49-9.48-13.61-6.34-24.98-6.18l-148.76,3.96c-9.71.42-19.49.62-29.25,1.2-5.04.3-25.65,1.84-28.62,1.41"/>
  <path class="st1" d="M576.66,74.81c14.3-5.5,30.12-4,44.31-.01l-.03,7.69c-19.5-3.15-25.09-2.84-44.38.13l.11-7.82ZM553.7,106.2c4.31-8.64,33.3-12.69,44.15-12.86,12.73-.2,39.62,4.24,44.7,12.28l-2.22,1.96c-9.37,5.25-10.47.03-17.6-1.85-7.39-1.94-16.99-2.67-24.9-2.57-7.49.09-17.29,1.18-24.38,3.19-4.62,1.31-11.57,7.76-19.76-.15ZM573.38,115.3c15.98-2.86,21.35-4.35,38.86-2.55,7.95,1.08,15.62,3.01,22.87,6.22,3.8-1.08,8.02-1.75,11.56-3.75,14.02-7.95,3.73-18.67-5.46-23.99-3.45-2-12.32-5.21-14.3-6.85-.38-6.46-.59-3.98,2.2-7.37,1.83-2.22,1.2-5.74-.35-7.46-2.84-3.15-9.5-3.43-13.68-5.66-1.06-4,2.36-6.79-2.07-10.12-2.9-2.18-7.41-1.98-10.67-3.49-1.8-11.71-1.02-20.51-1.69-32.37-.19-3.3-.2-11.54-1.82-17.91-1.82,6.68-1.86,16.07-1.97,19.36-.12,3.68-.33,7.31-.51,10.98-.31,6.28-.1,14.25-1.39,20.26-3.09.8-6.41.98-9.23,2.33-4.43,2.12-4.99,10.51.17,8.61,1.99-.74,3.97-6.21,19.14-3.6,4.79.83,4.68,1.02,4.9,5.53-10.91-.48-18.97-1.14-29.72,1.4-3.88.92-8.46,1.99-11.03,4.38-5.59,5.2.8,7.47,1.24,10.63l-.12,5.21c-24.4,6.5-40.15,27.13-10.31,33.89l13.39-3.67Z"/>
</svg>