<?xml version="1.0" encoding="UTF-8"?>
<svg id="Layer_1" xmlns="http://www.w3.org/2000/svg" version="1.1" viewBox="0 0 867.06 378.39">
  <!-- Generator: Adobe Illustrator 30.6.0, SVG Export Plug-In . SVG Version: 2.1.4 Build 109)  -->
  <defs>
    <style>
      .st0, .st1 {
        fill: #004e38;
      }

      .st2 {
        fill: none;
        stroke: #004e38;
        stroke-linecap: square;
        stroke-linejoin: bevel;
        stroke-width: .07px;
      }

      .st1 {
        fill-rule: evenodd;
      }
    </style>
  </defs>
  <path class="st1" d="M411.81,13.84c3.12-2.47,13.47-5.42,18.36-6.07,4.55-.61,3.69,3.27,3.6,7.64l.39,60.08c2-1.64,2.15-2.77,4.9-3.99-.56,2.32-3.85,6.96-5.62,9.33-.26.34-.82,1.05-1.12,1.39-1.13,1.3-.5.55-1.3,1.37l-.33-72.66c-5.16-1.29-13.3,2.31-18.87,2.92M394.36,106.91c3.19-2.45,57.52-8.94,66.34-9.96,7.56-.87,8.46-3.33,12.1-7.53,3.21-3.7,25.59-27.32,29.01-28.9l1.14,3.56c-2.11,3.5-6.62,6.48-9.56,9.48-3.4,3.47-6.14,6.41-9.29,10.15-1.53,1.8-2.89,3.58-4.61,5.12-7.06,6.35-9.04,11.12-16.29,12.08-11.79,1.56-60.72,8.65-68.84,5.99ZM539.89,128.83c10.67-5.94,29.2-17.01,38.13-14.19,6.88,2.18,14.75,13.42,21.06,17.64,7.07,4.73,24.92,6.65,29,9.68,3.65,2.71,6.42,7.26,9.48,10.18,16.24,15.54,14.54,7.55,27.44,11.26,15.43,4.44,23.13,17.86,41.19,17.46,4.87-.11,4.49-1.21,7.95,1.55l15.08,13.77c3.79,3.37,7.08,5.68,10.92,8.75l22.47,16.2c3.05,2.09,8.1,6.16,11.35,7.69,3.13,1.47,10.74,3.36,15.02,4.63,14.57,4.34,29.43,8.92,43.19,14.49,6.85,2.77,22.37,7.84,27.51,11.22-12.57-.96-28.24-4.91-40.6-7.39-16.19-3.24-40.5-7.33-53.93-16.77-9.53-6.7-35.05-25.09-44.1-27.05,2.57,5.22,8.19,8.81,8.71,13.73-4.64-.44-36.47-22.07-41.13-25.58-7.73-5.82-9.27-10.17-18.85-14.54-4.71-2.15-19.62-10.6-24.34-7.4-2.7,2.48,2.52,8.74,3.19,11.73-3.75-.66-8.3-3.92-11-5.65-10.99-7.04-9.89-3.41-17.11-15.63-2.25-3.8-4.72-6.02-7.24-9.15-2.02-2.51-5.23-6.77-7.8-8.6-3.58-2.55-8.26-2.38-11.09-5.3-2.9-3-10.48-15.81-17.79-14.57-4.19,14.06,10.68,20.6,13.8,33.2l-4.42-2.13c.06,10.23-.03,6.97,6.25,11.21,1.54,1.04,3.11,2.75,4.61,3.92,8.13,6.35,16.78,12.35,20.49,22.52-9.91-2.43-14.74-9.83-27.17-10.34-8.11-.33-8.51-1.19-13.69-4.93-3.91-2.82-6.87-4.95-10.51-7.85-7.85-6.25-13-10.92-19.29-17.42-4.61-4.76-12.02-14.73-24.06-11.29.48,3.05,4.6,4.69,6.89,6.17,5.83,3.76,7.54,9.98,11.86,13.71,9.39,8.1,25.91,19.37,35.08,28.18-2.75,1.09-2.44.89-5.86,1.05-4.6-1.12-11.91-5.39-17.86-7.13-7.06-2.07-14.27-2.71-22.25-2.68-1.79-1.18-2.83-6.43-4.09-8.36-1.44-2.2-3.87-4.77-5.72-6.11-9.07-6.58-20.2-12.79-30.13-18.35-9.87-5.53-8.44-5.39-17.53-1.07-2.73,1.3-5.84,2.32-8.64,3.81-3.57,1.9-4.76,2.7-8.64.58-2.85-1.56-5.12-3.18-7.17-5.28-3.22-3.28-9.93-7.1-13.92-10.32-1.88-1.51-4.62-4.34-7.42-3.73-4.21.91-13.67,6.51-12.25,12.1,1.77,3.23,18.19,16.33,23.15,20.27,4.12,3.26,7.93,6.15,12.21,9.42,3.54,2.7,8.94,6.31,11.26,10.27-9.65-1.07-57.6-27.72-69.42-28.54-1.96,1.78-3.15,4.04-4.78,6.12-1.89,2.41-3.06,4.35-5.06,6.31-5.07-.76-23.95-12.75-28.85-15.76-3.34,1.56-15.42,9.34-17.1,12.23,1.32,2.95,20.95,12.15,25.04,14.34,7.06,3.79,19.14,9.96,24.72,14.36-20.73-2.33-40.43-18.45-61.57-19.38-11.41-.5-21.85,6.08-30.77,9.69-4.8,1.94-9.38,4.29-13.94,6.33-3.15,1.41-10.5,6.38-14.21,4.09,14.28-12.66,40.9-26.87,57.92-37.72,6.19-3.95,12.44-9.29,18.26-13.1-.72-3.1-4.29-7.91-6.24-8.69-12.33-4.93-21.61,13.21-26.36,14.17,5.22-14.9,9.81-15.94,12.02-22.1-4.6-3.85-12.81-2.78-20.04-13.92-1.01,1.14-.22-.06-.85,1.51l-1.13,4.71c-3.19,9.04-16.81,7.53-21.2,16.8-1.59,3.36-2.66,8.58-2.82,12.79,5.56-1.04,8.28-4.17,14.55-4.76-1.59,6.47-11.56,15.39-16.78,18.4-3.88,2.24-16.09,1.69-26.86,7.88-12.68,7.28-23.5,30.83-37.27,33.09,2.61-6.07,2.3-2.54,5.19-13.44l4.26-12.58c-5.29-3.69-9.93-1.48-14.49,1.71-10.93,7.65-24.8,18.95-38.31,22.7l2.22-7.25c-21.52-2.22-44.11,30.09-69.81,40.67-17.13,7.05-67.79,22.46-88.68,22.14,2.6-1.82,10.25-4.19,13.86-5.94,15.41-7.43,22.5-10.67,38.09-19.57,13.67-7.81,23.02-12.09,35.32-22.37,3.39-2.84,7.02-5.63,10.51-8.5,19.78-16.24,19.45-9.09,25.5-9.43,4.98-.28,13.18-12.87,24.98-13.46,12.96-.65,15.25,1.01,29.03-9.72,7.26-5.65,13.49-12.03,19.8-18.22,10.53-10.32,25.36-14.38,38.92-19.45,11.59-4.33,15.25-8.67,23.74-14.96,9.26-6.86,10.89-9.36,22.44-15.52,5.31-2.83,8.73-3.56,15.15-1.77,8.33,2.32,18.1,9.43,24.74,13.96,7.2,4.92,11.66,6.5,17.94,11.17.03.02.43.03,1.14.01l16.29-6.36,5.2-.03.3-10.42c8.2-.71,19.1-1.3,23.42-5.78,9.86-10.24,10.36-4.2,10.62-18.62.33-18.69,1.43-38.5,1.42-56.68.01-18.25-.99-7.94-2.78-12.95.99-1.56,16.31-13.42,21.03-14.61,2.48,2.57,7.96,5.78,11.17,7.97,11.53,7.87,7.58,7.02,4.11,9.07-.1,4.23-.97,8.72-.7,12.89l1.25,37.37,29.59-5.26c.65-.15,1.29-.32,1.92-.57,4.15-1.61,2.91-7.56,2.59-11.34,4.63-2.31,8.26-4.65,11.92.1-.14.11-.38.2-.46.23l-.88.36c-.08.03-.34.09-.41.11-.46.12-.65-.05-1.15.11l.12,10.89c2.42-2.64,3.27-1.97,8.19-2.51,3.58-.4,6.96-.92,10.54-1.38,3.2,9.94,17.7,27.31,19.89,33.62l-5.89,1.97.2,22.86,8.77-.12.82,10.71c8.91.43,11.31.99,12.45,1.74Z"/>
  <path class="st2" d="M710.29,286.5v-2.52c-5.17-.43-5.79-.79-5.79-6.51v-26.33c0-5.72.62-6.15,5.79-6.51v-2.52h-19.26v2.52c5.17.36,5.87.79,5.87,6.51v26.33c0,5.64-.69,6.08-5.87,6.51v2.52h19.26ZM673.64,286.5v-2.52c-2.82-.43-4.59-1.15-7.56-4.74-4.16-5.1-9.98-12.67-14.44-19.04,3.33-3.69,6.95-7.63,10.2-10.74,4.03-3.7,6.3-4.46,10.89-4.82v-2.52h-17.11v2.52l1.42.14c2.89.3,2.89,1.2,1.26,3.26-2.46,3.26-5.79,7.21-9.84,11.34-2.03,1.95-3.58,2.89-4.99,3.3v-11.37c0-5.79.62-6.3,5.57-6.66v-2.52h-18.97v2.52c5.25.36,5.94.79,5.94,6.66v26.1c0,5.72-.69,6.15-5.64,6.58v2.52h19.04v-2.52c-5.32-.43-5.94-.86-5.94-6.58v-12.39c1.05-.21,2.1,0,3.58,1.99,5.32,7.29,10.89,15.07,14.51,19.5h12.08ZM609.73,252.49c-.58-4.37-1.05-7.26-1.35-9.69-1.84-.62-5.25-1.7-9.04-1.7-9.33,0-14.87,5.69-14.87,12.82s5.61,10.67,11.53,13.63c5.03,2.64,8.4,5.17,8.4,9.55s-2.83,7.48-7.27,7.48c-6.77,0-10.09-7.2-11.25-11.35l-2.68.75c.51,4.09,1.33,9.33,1.99,11.1.84.36,1.99.9,3.88,1.41,1.84.51,4.05.97,6.66.97,9.55,0,15.92-5.85,15.92-13.41s-5.53-10.82-11.83-13.93c-5.64-2.82-8.54-5.1-8.54-9.32,0-3.73,2.6-6.84,6.99-6.84,5.61,0,7.52,4.78,8.87,9.04l2.61-.51ZM540.16,244.03c7.93,0,14,7.89,14,21.66,0,12.6-5.57,18.81-12.24,18.81-8.75,0-14.36-9.55-14.36-21.55s5.68-18.92,12.52-18.92h.07ZM541.42,241.17c-14.62,0-22.75,11.4-22.75,23.34,0,13.24,9.32,22.96,21.99,22.96s22.46-8.82,22.46-23.65c0-13.71-9.94-22.65-21.64-22.65h-.07ZM500.5,242.12h-16.62v2.45c4.68.28,6.23,1.26,6.59,3.97.22,2.03.51,5.21.51,11.23v13.94h-.21l-25.97-31.59h-11.51v2.45c2.9.28,4.52.79,5.79,2.42,1.24,1.63,1.3,2.46,1.3,7.06v14.58c0,5.79-.28,9.05-.57,11.22-.3,2.9-1.93,3.92-5.72,4.13v2.52h16.65v-2.52c-4.68-.21-6.16-1.22-6.45-4.27-.22-2.03-.51-5.29-.51-11.08v-15.86h.14l27.35,34.32h3.19v-27.33c0-6.01.21-9.2.51-11.3.36-2.72,1.84-3.69,5.53-3.9v-2.45ZM412.36,244.03c7.93,0,14,7.89,14,21.66,0,12.6-5.57,18.81-12.24,18.81-8.75,0-14.36-9.55-14.36-21.55s5.68-18.92,12.52-18.92h.07ZM413.62,241.17c-14.62,0-22.75,11.4-22.75,23.34,0,13.24,9.32,22.96,21.99,22.96s22.46-8.82,22.46-23.65c0-13.71-9.94-22.65-21.64-22.65h-.07ZM375.65,286.5v-2.52c-2.82-.43-4.59-1.15-7.56-4.74-4.16-5.1-9.98-12.67-14.43-19.04,3.33-3.69,6.95-7.63,10.2-10.74,4.03-3.7,6.3-4.46,10.89-4.82v-2.52h-17.11v2.52l1.42.14c2.89.3,2.89,1.2,1.26,3.26-2.46,3.26-5.79,7.21-9.84,11.34-2.03,1.95-3.58,2.89-4.99,3.3v-11.37c0-5.79.62-6.3,5.57-6.66v-2.52h-18.97v2.52c5.25.36,5.94.79,5.94,6.66v26.1c0,5.72-.69,6.15-5.64,6.58v2.52h19.04v-2.52c-5.32-.43-5.94-.86-5.94-6.58v-12.39c1.05-.21,2.1,0,3.58,1.99,5.32,7.29,10.89,15.07,14.51,19.5h12.08ZM287.58,264.57v-16.17c0-1.7.15-2.43.69-2.79.43-.47,1.41-.75,3.17-.75,4.38,0,8.97,2.61,8.97,9.69,0,3.51-1.04,6.22-3.57,8.17-1.56,1.3-3.69,1.84-6.66,1.84h-2.61ZM315.5,284.81c-1.45-.49-2.85-1.26-4.48-3.04-1.48-1.48-2.75-3.33-5.14-7.06-2.06-3.12-4.67-7.72-5.79-9.7,4.85-2.05,8.55-5.46,8.55-11.46,0-4.24-1.93-7.27-4.67-9.04-2.68-1.77-6.01-2.38-11.4-2.38h-18.17v2.52c5.03.36,5.72.8,5.72,6.37v26.45c0,5.66-.77,6.09-6,6.52v2.52h19.25v-2.52c-5.17-.43-5.79-.86-5.79-6.52v-10.08h1.88c2.64,0,3.77.79,4.89,2.72,1.91,3.45,4.05,7.51,6.06,10.47,2.79,4.37,5.47,6.15,12.45,6.45.8,0,1.63.06,2.28.06l.36-2.27ZM237.3,268.06h-11.21c1.88-5.19,3.72-10.55,5.63-15.87h.22l5.36,15.87ZM256.03,286.5v-2.52c-4.46-.51-5.36-1.15-7.42-7.01-4.3-11.52-8.68-24.33-12.81-35.89l-3.17.8-13.63,35.22c-2.25,5.79-3.11,6.3-7.57,6.88v2.52h15.19v-2.52c-4.88-.58-5.2-1.3-4.08-4.95.75-2.75,1.62-5.19,2.46-7.36h13.45c1.12,3.05,2.17,6.16,2.96,8.34.91,2.83.47,3.4-3.54,3.98v2.52h18.16ZM196.2,286.5v-2.52c-2.82-.43-4.59-1.15-7.56-4.74-4.16-5.1-9.98-12.67-14.43-19.04,3.33-3.69,6.95-7.63,10.2-10.74,4.03-3.7,6.3-4.46,10.89-4.82v-2.52h-17.11v2.52l1.42.14c2.89.3,2.89,1.2,1.26,3.26-2.46,3.26-5.79,7.21-9.84,11.34-2.02,1.95-3.58,2.89-4.99,3.3v-11.37c0-5.79.62-6.3,5.57-6.66v-2.52h-18.97v2.52c5.25.36,5.94.79,5.94,6.66v26.1c0,5.72-.69,6.15-5.64,6.58v2.52h19.04v-2.52c-5.32-.43-5.94-.86-5.94-6.58v-12.39c1.05-.21,2.1,0,3.58,1.99,5.32,7.29,10.89,15.07,14.51,19.5h12.08Z"/>
  <path class="st0" d="M710.29,286.5v-2.52c-5.17-.43-5.79-.79-5.79-6.51v-26.33c0-5.72.62-6.15,5.79-6.51v-2.52h-19.26v2.52c5.17.36,5.87.79,5.87,6.51v26.33c0,5.64-.69,6.08-5.87,6.51v2.52h19.26ZM673.64,286.5v-2.52c-2.82-.43-4.59-1.15-7.56-4.74-4.16-5.1-9.98-12.67-14.43-19.04,3.33-3.69,6.95-7.63,10.2-10.74,4.03-3.7,6.3-4.46,10.89-4.82v-2.52h-17.11v2.52l1.42.14c2.89.3,2.89,1.2,1.26,3.26-2.46,3.26-5.79,7.21-9.84,11.34-2.03,1.95-3.58,2.89-4.99,3.3v-11.37c0-5.79.62-6.3,5.57-6.66v-2.52h-18.97v2.52c5.25.36,5.94.79,5.94,6.66v26.1c0,5.72-.69,6.15-5.64,6.58v2.52h19.04v-2.52c-5.32-.43-5.94-.86-5.94-6.58v-12.39c1.05-.21,2.1,0,3.58,1.99,5.32,7.29,10.89,15.07,14.51,19.5h12.08ZM609.73,252.49c-.58-4.37-1.05-7.26-1.35-9.69-1.84-.62-5.25-1.7-9.04-1.7-9.34,0-14.87,5.69-14.87,12.82s5.61,10.67,11.53,13.63c5.03,2.64,8.4,5.17,8.4,9.55s-2.83,7.48-7.27,7.48c-6.77,0-10.09-7.2-11.25-11.35l-2.68.75c.51,4.09,1.33,9.34,1.99,11.1.84.36,1.99.9,3.88,1.41,1.84.51,4.05.98,6.66.98,9.54,0,15.92-5.85,15.92-13.41s-5.53-10.82-11.83-13.93c-5.64-2.82-8.54-5.1-8.54-9.32,0-3.73,2.6-6.84,6.99-6.84,5.61,0,7.52,4.78,8.87,9.04l2.61-.51ZM540.16,244.04c7.93,0,14,7.89,14,21.66,0,12.6-5.57,18.81-12.24,18.81-8.75,0-14.36-9.54-14.36-21.55s5.68-18.92,12.52-18.92h.07ZM541.42,241.17c-14.62,0-22.75,11.4-22.75,23.34,0,13.24,9.32,22.96,21.99,22.96s22.46-8.82,22.46-23.65c0-13.71-9.94-22.65-21.64-22.65h-.07ZM500.5,242.12h-16.62v2.45c4.68.28,6.24,1.26,6.59,3.98.22,2.02.51,5.21.51,11.22v13.94h-.21l-25.97-31.59h-11.51v2.45c2.9.28,4.52.79,5.79,2.42,1.23,1.63,1.3,2.46,1.3,7.06v14.58c0,5.79-.28,9.05-.57,11.22-.3,2.9-1.93,3.92-5.72,4.13v2.52h16.65v-2.52c-4.68-.21-6.16-1.22-6.45-4.27-.22-2.03-.51-5.29-.51-11.08v-15.86h.14l27.35,34.32h3.19v-27.33c0-6.01.21-9.2.51-11.3.36-2.72,1.84-3.69,5.53-3.9v-2.45ZM412.36,244.04c7.93,0,14,7.89,14,21.66,0,12.6-5.57,18.81-12.24,18.81-8.75,0-14.36-9.54-14.36-21.55s5.68-18.92,12.52-18.92h.07ZM413.62,241.17c-14.62,0-22.75,11.4-22.75,23.34,0,13.24,9.32,22.96,21.99,22.96s22.46-8.82,22.46-23.65c0-13.71-9.94-22.65-21.63-22.65h-.07ZM375.65,286.5v-2.52c-2.82-.43-4.59-1.15-7.56-4.74-4.16-5.1-9.98-12.67-14.43-19.04,3.33-3.69,6.95-7.63,10.2-10.74,4.03-3.7,6.3-4.46,10.89-4.82v-2.52h-17.11v2.52l1.42.14c2.89.3,2.89,1.2,1.26,3.26-2.46,3.26-5.79,7.21-9.84,11.34-2.03,1.95-3.58,2.89-4.99,3.3v-11.37c0-5.79.62-6.3,5.57-6.66v-2.52h-18.97v2.52c5.25.36,5.94.79,5.94,6.66v26.1c0,5.72-.69,6.15-5.64,6.58v2.52h19.04v-2.52c-5.32-.43-5.94-.86-5.94-6.58v-12.39c1.05-.21,2.1,0,3.58,1.99,5.32,7.29,10.89,15.07,14.51,19.5h12.08ZM287.57,264.57v-16.16c0-1.7.15-2.43.69-2.79.43-.47,1.41-.75,3.17-.75,4.38,0,8.97,2.61,8.97,9.69,0,3.51-1.04,6.22-3.57,8.17-1.56,1.3-3.69,1.84-6.66,1.84h-2.61ZM315.5,284.81c-1.45-.49-2.85-1.26-4.48-3.04-1.48-1.48-2.75-3.33-5.14-7.06-2.06-3.12-4.67-7.72-5.79-9.7,4.85-2.05,8.55-5.46,8.55-11.46,0-4.24-1.93-7.27-4.67-9.04-2.68-1.77-6.01-2.38-11.4-2.38h-18.17v2.52c5.03.36,5.72.8,5.72,6.37v26.45c0,5.66-.77,6.09-6,6.52v2.52h19.25v-2.52c-5.17-.43-5.79-.86-5.79-6.52v-10.08h1.88c2.64,0,3.77.79,4.89,2.72,1.91,3.45,4.05,7.51,6.06,10.47,2.79,4.37,5.47,6.15,12.45,6.45.8,0,1.63.06,2.28.06l.36-2.27ZM237.3,268.06h-11.21c1.88-5.19,3.72-10.55,5.63-15.87h.22l5.36,15.87ZM256.03,286.5v-2.52c-4.46-.51-5.36-1.15-7.42-7.01-4.3-11.52-8.68-24.33-12.81-35.88l-3.17.8-13.63,35.22c-2.25,5.79-3.11,6.3-7.57,6.88v2.52h15.19v-2.52c-4.88-.58-5.2-1.3-4.08-4.95.75-2.75,1.62-5.19,2.46-7.36h13.45c1.12,3.05,2.17,6.16,2.96,8.34.91,2.83.47,3.4-3.54,3.98v2.52h18.16ZM196.2,286.5v-2.52c-2.82-.43-4.59-1.15-7.56-4.74-4.16-5.1-9.98-12.67-14.43-19.04,3.33-3.69,6.95-7.63,10.2-10.74,4.03-3.7,6.3-4.46,10.89-4.82v-2.52h-17.11v2.52l1.42.14c2.89.3,2.89,1.2,1.26,3.26-2.46,3.26-5.79,7.21-9.84,11.34-2.03,1.95-3.58,2.89-4.99,3.3v-11.37c0-5.79.62-6.3,5.57-6.66v-2.52h-18.97v2.52c5.25.36,5.94.79,5.94,6.66v26.1c0,5.72-.69,6.15-5.64,6.58v2.52h19.04v-2.52c-5.32-.43-5.94-.86-5.94-6.58v-12.39c1.05-.21,2.1,0,3.58,1.99,5.32,7.29,10.89,15.07,14.51,19.5h12.08Z"/>
  <path class="st2" d="M709.9,376.88v-3.85c-4.31-.66-7.03-1.76-11.57-7.26-6.37-7.8-15.27-19.39-22.09-29.14,5.1-5.65,10.64-11.68,15.61-16.44,6.16-5.67,9.64-6.82,16.67-7.37v-3.85h-26.19v3.85l2.17.21c4.42.45,4.42,1.83,1.93,4.99-3.76,4.99-8.86,11.04-15.06,17.35-3.1,2.99-5.48,4.42-7.63,5.05v-17.4c0-8.86.94-9.64,8.52-10.19v-3.85h-29.02v3.85c8.03.55,9.09,1.21,9.09,10.19v39.95c0,8.75-1.06,9.41-8.64,10.07v3.85h29.14v-3.85c-8.14-.66-9.09-1.32-9.09-10.07v-18.95c1.61-.32,3.21,0,5.48,3.04,8.14,11.15,16.67,23.05,22.2,29.84h18.48ZM625.94,308.97h-25.43v3.74c7.16.44,9.54,1.93,10.09,6.09.34,3.1.77,7.97.77,17.18v21.33h-.32l-39.74-48.34h-17.61v3.74c4.44.44,6.92,1.21,8.86,3.7,1.89,2.49,1.98,3.76,1.98,10.81v22.32c0,8.86-.43,13.85-.87,17.18-.45,4.44-2.95,5.99-8.75,6.31v3.85h25.47v-3.85c-7.16-.32-9.43-1.87-9.86-6.54-.34-3.1-.77-8.09-.77-16.95v-24.26h.21l41.86,52.51h4.87v-41.82c0-9.2.32-14.08.77-17.29.55-4.16,2.82-5.65,8.47-5.97v-3.74ZM538.42,308.97h-23.79v3.85c7.8.77,7.8,1.93,5.97,6.37-2.61,6.42-7.92,16.06-10.96,22.11-4.19-7.48-8.62-15.36-12.4-22.83-1.87-3.61-2.16-4.76,4.76-5.65v-3.85h-27.29v3.85c5.76.66,7.37,1.81,11.24,8.35,5.74,10.37,9.52,17.06,12.79,23.37,1.38,2.49,1.7,3.55,1.7,6.05v12.47c0,8.75-.93,9.3-9.85,9.96v3.85h31.82v-3.85c-9.41-.66-10.19-1.32-10.19-9.96v-13.64c0-3.04.32-4.04,1.76-6.92,4.93-9.52,7.98-14.63,12.07-21.22,3.7-6.43,5.65-7.8,12.34-8.47v-3.85ZM456.08,357.29c-2.12,5.88-3.82,9.09-6.09,11.47-2.95,2.82-8.43,3.36-18.05,3.36-6.42,0-10.73-.09-14.17-.55,13.28-20.77,26.4-40.7,39.79-61.13l-1-1.47h-40.72c-3.04,0-4.16-.21-5.65-2.7h-2.93c-.23,5.2-.95,12.55-1.29,20.29l3.87.11c1.11-4.87,2.61-7.86,3.99-9.52,1.66-2.49,3.38-3.65,13.77-3.65h14.17c-13.11,20.31-26.94,41.4-40.34,61.54l1.06,1.83h53.72c1.12-3.76,2.95-14.06,3.72-18.71l-3.87-.89ZM380.23,324.84c-.89-6.69-1.61-11.11-2.06-14.83-2.82-.95-8.03-2.61-13.83-2.61-14.29,0-22.75,8.71-22.75,19.61s8.58,16.33,17.65,20.86c7.69,4.04,12.85,7.92,12.85,14.61s-4.33,11.45-11.13,11.45c-10.36,0-15.44-11.02-17.21-17.37l-4.1,1.15c.78,6.25,2.04,14.28,3.04,16.99,1.29.55,3.04,1.38,5.93,2.15,2.82.77,6.2,1.49,10.18,1.49,14.61,0,24.36-8.96,24.36-20.52s-8.46-16.55-18.1-21.31c-8.64-4.31-13.08-7.81-13.08-14.27,0-5.71,3.99-10.47,10.7-10.47,8.58,0,11.51,7.31,13.57,13.83l3.99-.77ZM325.78,308.97h-23.79v3.85c7.8.77,7.8,1.93,5.97,6.37-2.61,6.42-7.92,16.06-10.96,22.11-4.19-7.48-8.62-15.36-12.4-22.83-1.87-3.61-2.15-4.76,4.76-5.65v-3.85h-27.29v3.85c5.76.66,7.37,1.81,11.24,8.35,5.75,10.37,9.52,17.06,12.79,23.37,1.38,2.49,1.7,3.55,1.7,6.05v12.47c0,8.75-.93,9.3-9.85,9.96v3.85h31.82v-3.85c-9.41-.66-10.19-1.32-10.19-9.96v-13.64c0-3.04.32-4.04,1.76-6.92,4.93-9.52,7.97-14.63,12.07-21.22,3.7-6.43,5.65-7.8,12.34-8.47v-3.85ZM246.98,308.97h-23.92v3.85c8.14.66,8.64,2.04,7.26,8.13-1.61,7.05-6.48,24.55-10.41,37.68h-.34c-5.69-16.57-11.45-32.69-17.04-48.94h-4.65c-4.99,16.14-10.3,32.48-15.4,48.71h-.21c-3.87-13.02-7.48-25.64-11.13-38.66-1.38-5.1-1.23-6.14,6.37-6.92v-3.85h-28.14v3.85c5.99.66,7.71,1.81,10.2,9.85,5.69,18.61,11.02,36.56,16.55,55.23h4.86c4.99-15.74,10.47-31.63,15.89-48.41h.23c5.54,16,11.34,32.56,16.78,48.41h4.97c8.52-29.25,14.63-47.64,17.01-54.89,2.87-8.26,4.19-9.3,11.13-10.19v-3.85Z"/>
  <path class="st0" d="M709.89,376.89v-3.85c-4.31-.66-7.03-1.76-11.57-7.26-6.37-7.8-15.27-19.39-22.09-29.14,5.1-5.65,10.64-11.68,15.61-16.44,6.16-5.67,9.64-6.82,16.67-7.37v-3.85h-26.19v3.85l2.17.21c4.42.45,4.42,1.83,1.93,4.99-3.76,4.99-8.86,11.04-15.06,17.35-3.1,2.99-5.48,4.42-7.63,5.05v-17.4c0-8.86.94-9.64,8.52-10.18v-3.85h-29.02v3.85c8.03.55,9.09,1.21,9.09,10.18v39.95c0,8.75-1.06,9.41-8.64,10.07v3.85h29.14v-3.85c-8.14-.66-9.09-1.32-9.09-10.07v-18.95c1.61-.32,3.21,0,5.48,3.04,8.14,11.15,16.67,23.05,22.2,29.84h18.48ZM625.94,308.97h-25.43v3.74c7.16.44,9.54,1.93,10.09,6.09.34,3.1.77,7.97.77,17.18v21.33h-.32l-39.74-48.34h-17.61v3.74c4.44.44,6.92,1.21,8.86,3.7,1.89,2.49,1.98,3.76,1.98,10.81v22.32c0,8.86-.43,13.85-.87,17.18-.45,4.44-2.95,5.99-8.75,6.31v3.85h25.47v-3.85c-7.16-.32-9.43-1.87-9.86-6.54-.34-3.1-.78-8.09-.78-16.95v-24.26h.21l41.85,52.51h4.87v-41.82c0-9.2.32-14.08.78-17.29.55-4.16,2.82-5.65,8.47-5.97v-3.74ZM538.42,308.97h-23.79v3.85c7.8.77,7.8,1.93,5.97,6.37-2.61,6.42-7.92,16.06-10.96,22.11-4.19-7.48-8.62-15.36-12.4-22.83-1.87-3.61-2.15-4.76,4.76-5.65v-3.85h-27.29v3.85c5.76.66,7.37,1.81,11.24,8.35,5.74,10.37,9.52,17.06,12.79,23.37,1.38,2.49,1.7,3.55,1.7,6.05v12.47c0,8.75-.93,9.3-9.85,9.96v3.85h31.82v-3.85c-9.41-.66-10.19-1.32-10.19-9.96v-13.64c0-3.04.32-4.04,1.76-6.92,4.93-9.52,7.97-14.63,12.07-21.22,3.7-6.43,5.65-7.8,12.34-8.47v-3.85ZM456.08,357.29c-2.12,5.88-3.82,9.09-6.08,11.47-2.95,2.82-8.43,3.36-18.05,3.36-6.43,0-10.73-.09-14.17-.55,13.28-20.77,26.4-40.7,39.79-61.13l-1-1.47h-40.72c-3.04,0-4.16-.21-5.65-2.7h-2.93c-.23,5.2-.95,12.55-1.29,20.29l3.87.11c1.11-4.87,2.61-7.86,3.99-9.52,1.66-2.49,3.38-3.65,13.77-3.65h14.17c-13.11,20.31-26.94,41.4-40.34,61.54l1.06,1.83h53.72c1.11-3.76,2.95-14.06,3.72-18.71l-3.87-.89ZM380.23,324.85c-.89-6.69-1.61-11.11-2.06-14.83-2.82-.94-8.03-2.61-13.83-2.61-14.29,0-22.75,8.71-22.75,19.61s8.58,16.33,17.65,20.86c7.69,4.04,12.85,7.92,12.85,14.61s-4.33,11.45-11.13,11.45c-10.35,0-15.44-11.02-17.21-17.37l-4.1,1.15c.78,6.25,2.04,14.28,3.04,16.99,1.28.55,3.04,1.38,5.93,2.15,2.82.77,6.2,1.49,10.18,1.49,14.61,0,24.36-8.96,24.36-20.52s-8.46-16.55-18.1-21.31c-8.64-4.31-13.08-7.81-13.08-14.27,0-5.71,3.99-10.47,10.7-10.47,8.58,0,11.51,7.31,13.57,13.83l3.99-.78ZM325.78,308.97h-23.79v3.85c7.8.77,7.8,1.93,5.97,6.37-2.61,6.42-7.92,16.06-10.96,22.11-4.19-7.48-8.62-15.36-12.4-22.83-1.87-3.61-2.15-4.76,4.76-5.65v-3.85h-27.29v3.85c5.76.66,7.37,1.81,11.24,8.35,5.74,10.37,9.52,17.06,12.79,23.37,1.38,2.49,1.7,3.55,1.7,6.05v12.47c0,8.75-.93,9.3-9.85,9.96v3.85h31.82v-3.85c-9.41-.66-10.18-1.32-10.18-9.96v-13.64c0-3.04.32-4.04,1.76-6.92,4.93-9.52,7.97-14.63,12.07-21.22,3.7-6.43,5.65-7.8,12.34-8.47v-3.85ZM246.98,308.97h-23.92v3.85c8.14.66,8.64,2.04,7.26,8.13-1.61,7.05-6.48,24.55-10.41,37.68h-.34c-5.69-16.57-11.45-32.69-17.04-48.94h-4.65c-4.99,16.14-10.3,32.48-15.4,48.71h-.21c-3.87-13.02-7.48-25.64-11.13-38.66-1.38-5.1-1.23-6.14,6.37-6.92v-3.85h-28.14v3.85c5.99.66,7.71,1.81,10.2,9.84,5.69,18.61,11.02,36.56,16.55,55.23h4.86c4.99-15.74,10.47-31.63,15.89-48.41h.23c5.54,16,11.34,32.56,16.78,48.41h4.97c8.52-29.25,14.63-47.64,17.01-54.89,2.87-8.26,4.19-9.3,11.13-10.18v-3.85Z"/>
  <path class="st1" d="M734.49,343.21c2.36,3.53,1.67,2.7,13.66,2.63,15.7-.1,112.68-1.19,118.92-2.48-41-1.59-83.77-2.72-124.76-2.67-5.72,0-5.7-.51-7.81,2.52"/>
  <path class="st1" d="M132.57,343.21c-2.36,3.53-1.67,2.7-13.66,2.63-15.7-.1-112.68-1.19-118.91-2.48,41-1.59,83.77-2.72,124.76-2.67,5.72,0,5.7-.51,7.81,2.52"/>
</svg>